# xmcd
#
# Track frame offsets:
# 150
# 16370
# 31077
# 48490
# 67257
# 86032
# 101120
# 118432
# 132207
# 149075
# 165290
# 190222
# 204057
#
# Disc length: 3077 seconds
#
#
# Revision: 2
# Processed by: cddbd v1.5.2PL0 Copyright (c) Steve Scherf et al.
# Submitted via: FreeRIP 2.951 
#
DISCID=bb0c030d
DTITLE=Jim Kahr - Back to Chicago
DYEAR=1900
DGENRE=rock
TTITLE0=As the years go passing by
TTITLE1=Breaking up somebody's home
TTITLE2=Keep 'em hot
TTITLE3=Broken man
TTITLE4=Where we goin' ?
TTITLE5=Off the wall
TTITLE6=If loving you is wrong
TTITLE7=Chicago! (Doin' it to me)
TTITLE8=Ain't nobody's buisiness
TTITLE9=You oughta know
TTITLE10=Don't mess with mister T.
TTITLE11=Roughin' it
TTITLE12=Miss that ol' feelin'
EXTD=
EXTT0=
EXTT1=
EXTT2=
EXTT3=
EXTT4=
EXTT5=
EXTT6=
EXTT7=
EXTT8=
EXTT9=
EXTT10=
EXTT11=
EXTT12=
PLAYORDER=
